<?xml version="1.0" encoding="utf-8"?>
<!-- Generator: Adobe Illustrator 21.1.0, SVG Export Plug-In . SVG Version: 6.00 Build 0)  -->
<svg version="1.1" id="Livello_1" xmlns="http://www.w3.org/2000/svg" xmlns:xlink="http://www.w3.org/1999/xlink" x="0px" y="0px"
	 viewBox="0 0 79.5 79.5" style="enable-background:new 0 0 79.5 79.5;" xml:space="preserve">
<style type="text/css">
	.st0{fill:#05589B;}
</style>
<path class="st0" d="M66.9,66.9c-6.9,6.9-16.5,11.2-27,11.2c-10.6,0-20.1-4.3-27-11.2C5.9,60,1.6,50.4,1.6,39.8
	c0-10.6,4.3-20.1,11.2-27c6.9-6.9,16.5-11.2,27-11.2s20.1,4.3,27,11.2c6.9,6.9,11.2,16.5,11.2,27C78.1,50.4,73.8,60,66.9,66.9
	 M39.8,0C17.8,0,0,17.8,0,39.8c0,22,17.8,39.8,39.8,39.8c22,0,39.8-17.8,39.8-39.8C79.7,17.8,61.8,0,39.8,0 M49.5,49.1h-1.3
	c-0.2,0-0.4,0-0.4,0.1c-0.1,0.1-0.1,0.2-0.1,0.4v1.2c0,0.2,0,0.3,0.1,0.4c0.1,0.1,0.2,0.1,0.4,0.1h1.3c0.2,0,0.4,0,0.4-0.1
	c0.1-0.1,0.1-0.2,0.1-0.4v-0.3l-0.5-0.1v0.5h-1.4v-1.4h1.4v0.4l0.5-0.1v-0.2c0-0.2,0-0.3-0.1-0.4C49.9,49.1,49.7,49.1,49.5,49.1
	 M45,50.3h1V50h-1v-0.5h1.8v-0.4h-2.3v2.2h2.3v-0.4H45V50.3z M34.3,41h4.8v-4h-4.8V41z M38.5,50.2c0,0,0,0.1,0,0.1
	c0,0.1,0,0.1,0,0.3c0,0-0.1-0.1-0.1-0.1c0,0-0.1-0.1-0.1-0.1l-1.6-1.3h-0.4v2.2h0.5v-1.2c0,0,0-0.1,0-0.2c0-0.1,0-0.1,0-0.2
	c0,0,0.1,0.1,0.1,0.1c0,0,0.1,0.1,0.1,0.1l1.6,1.4H39v-2.2h-0.5V50.2z M41.3,49.5h1v1.8h0.5v-1.8h1v-0.4h-2.6V49.5z M59.8,40.5
	c0,1.5,0.1,2.5,0.3,3.2c0.4,1.1,1.2,1.9,2.4,2.3c1,0.3,2.8,0.5,5.3,0.5c1.5,0,2.7-0.1,3.4-0.2c1.8-0.3,2.9-1.1,3.4-2.4
	c0.3-0.7,0.4-1.7,0.4-3.2c0-0.6,0-1.2-0.1-1.7c-0.1-0.8-0.4-1.5-1-2c-0.7-0.7-1.8-1.1-3.4-1.2c-0.5-0.1-1.7-0.1-3.7-0.3L66,35.3
	c-0.4,0-0.7-0.1-1-0.3c-0.3-0.2-0.5-0.6-0.5-1.3c0-0.7,0.2-1.2,0.6-1.4c0.4-0.2,1.2-0.3,2.3-0.3c1.2,0,2,0.2,2.2,0.6
	c0.2,0.3,0.3,0.7,0.3,1.5h4.5c0-0.4,0-0.7,0-0.9c0-2.4-1-3.9-3-4.5c-0.8-0.2-2.2-0.3-4.1-0.3c-1.2,0-2.3,0-3.3,0.1
	c-1.2,0.1-2.2,0.4-2.9,1c-0.5,0.4-0.9,0.9-1.1,1.6c-0.2,0.7-0.4,1.6-0.4,2.7c0,1.5,0.2,2.6,0.7,3.4c0.5,0.9,1.5,1.4,3,1.7
	c0.6,0.1,1.6,0.2,3,0.3c1.8,0.1,2.8,0.2,3,0.3c0.6,0.2,0.9,0.7,0.9,1.5c0,0.4,0,0.6-0.1,0.9c-0.1,0.4-0.4,0.6-0.8,0.8
	c-0.2,0.1-0.8,0.1-1.6,0.1h-1.7c-0.4,0-0.8-0.1-1.1-0.2c-0.5-0.2-0.7-0.7-0.7-1.5v-0.4H59.8z M71.1,49.1h-1.5c-0.2,0-0.4,0-0.4,0.1
	C69,49.3,69,49.4,69,49.6v1.2c0,0.2,0,0.3,0.1,0.4c0.1,0.1,0.2,0.1,0.4,0.1h1.5c0.2,0,0.4,0,0.4-0.1s0.1-0.2,0.1-0.4V50h-1.3v0.4
	h0.8v0.5h-1.6v-1.4h1.6v0.2l0.5-0.1v-0.1c0-0.2,0-0.3-0.1-0.4C71.4,49.1,71.3,49.1,71.1,49.1 M60.8,50.9h-1.7v-1.4h1.7V50.9z
	 M60.8,49.1h-1.6c-0.2,0-0.4,0-0.4,0.1c-0.1,0.1-0.1,0.2-0.1,0.4v1.2c0,0.2,0,0.3,0.1,0.4c0.1,0.1,0.2,0.1,0.4,0.1h1.6
	c0.2,0,0.4,0,0.4-0.1c0.1-0.1,0.1-0.2,0.1-0.4v-1.2c0-0.2,0-0.3-0.1-0.4C61.1,49.1,61,49.1,60.8,49.1 M62.9,49.1h-0.5v2.2h2.2v-0.4
	h-1.7V49.1z M34.8,50.9h-1.7v-1.4h1.7V50.9z M34.8,49.1h-1.6c-0.2,0-0.4,0-0.4,0.1c-0.1,0.1-0.1,0.2-0.1,0.4v1.2
	c0,0.2,0,0.3,0.1,0.4c0.1,0.1,0.2,0.1,0.4,0.1h1.6c0.2,0,0.4,0,0.4-0.1c0.1-0.1,0.1-0.2,0.1-0.4v-1.2c0-0.2,0-0.3-0.1-0.4
	C35.1,49.1,35,49.1,34.8,49.1 M53.3,49.9h-1.6v-0.9h-0.5v2.2h0.5v-1h1.6v1h0.5v-2.2h-0.5V49.9z M57.1,50.8
	C57.1,50.9,57.1,50.9,57.1,50.8c0,0.1,0,0.2,0,0.3c0,0-0.1-0.1-0.1-0.1c0,0-0.1-0.1-0.1-0.1l-1.6-1h-0.4v1.6h0.5v-0.9
	c0,0,0-0.1,0-0.1c0,0,0-0.1,0-0.1c0,0,0.1,0,0.1,0.1c0,0,0.1,0,0.1,0.1l1.6,1h0.4V50h-0.5V50.8z M73.5,49.9l-0.8-0.9h-0.7l1.1,1.2v1
	h0.5v-1l1.1-1.2h-0.6L73.5,49.9z M52.9,39.8c-0.1,1.2-0.5,2-1.2,2.3c-0.4,0.2-1.1,0.3-2,0.3c-0.9,0-1.5,0-1.8-0.1
	c-0.7-0.1-1.2-0.5-1.4-1c-0.2-0.6-0.3-1.7-0.3-3.4c0-1.4,0-2.3,0.1-2.9c0.1-1.2,0.5-1.9,1.2-2.2c0.4-0.2,1.1-0.2,2.2-0.2
	c1.1,0,1.9,0.1,2.3,0.3c0.6,0.3,1,1,1.1,2.2c0,0.4,0,1.1,0,2.2C52.9,38.4,52.9,39.3,52.9,39.8 M54.5,29c-0.9-0.4-2.5-0.6-4.6-0.6
	c-2.3,0-3.9,0.2-4.8,0.5c-1.9,0.7-3,1.8-3.4,3.3c-0.3,1.1-0.5,3.2-0.5,6.3c0,1.5,0.1,2.6,0.2,3.3c0.3,1.6,1.1,2.9,2.5,3.7
	c0.6,0.4,1.3,0.6,2,0.7c0.8,0.1,1.9,0.2,3.2,0.2c1.4,0,2.5-0.1,3.3-0.2c0.9-0.1,1.6-0.3,2.2-0.6c1.6-0.7,2.5-2.1,2.9-4.2
	c0.1-0.7,0.2-2,0.2-4c0-2.3-0.1-3.8-0.2-4.6C57.2,31,56.2,29.7,54.5,29 M11.8,49.9h-1.4v-0.5h1.4v0.3l0.5-0.1v0c0-0.2,0-0.3-0.1-0.4
	c-0.1-0.1-0.2-0.1-0.4-0.1h-1.3c-0.2,0-0.4,0-0.4,0.1c-0.1,0.1-0.1,0.2-0.1,0.4v0.2c0,0.2,0,0.3,0.1,0.4c0.1,0.1,0.2,0.1,0.4,0.1
	h1.4v0.5h-1.6v-0.3l-0.5,0.1v0.1c0,0.2,0,0.3,0.1,0.4c0.1,0.1,0.2,0.1,0.4,0.1h1.4c0.2,0,0.4,0,0.4-0.1c0.1-0.1,0.1-0.2,0.1-0.4
	v-0.3c0-0.2,0-0.3-0.1-0.4C12.1,50,12,49.9,11.8,49.9 M67.4,50.9h-1.7v-1.4h1.7V50.9z M67.4,49.1h-1.6c-0.2,0-0.4,0-0.4,0.1
	c-0.1,0.1-0.1,0.2-0.1,0.4v1.2c0,0.2,0,0.3,0.1,0.4c0.1,0.1,0.2,0.1,0.4,0.1h1.6c0.2,0,0.4,0,0.4-0.1c0.1-0.1,0.1-0.2,0.1-0.4v-1.2
	c0-0.2,0-0.3-0.1-0.4C67.8,49.1,67.6,49.1,67.4,49.1 M17.2,50.2c0,0,0,0.1,0,0.1c0,0.1,0,0.1,0,0.3c0,0-0.1-0.1-0.1-0.1
	c0,0-0.1-0.1-0.1-0.1l-1.6-1.3H15v2.2h0.5v-1.2c0,0,0-0.1,0-0.2c0-0.1,0-0.1,0-0.2c0,0,0.1,0.1,0.1,0.1c0,0,0.1,0.1,0.1,0.1l1.6,1.4
	h0.4v-2.2h-0.5V50.2z M11.6,39.8l2.2-7.7l2.2,7.7H11.6z M17.4,28.5h-7.2L4.8,46.3h5l0.9-3.1H17l0.9,3.1h4.9L17.4,28.5z M6.6,50.7
	c-0.1,0.1-0.4,0.2-0.8,0.2H5.1v-1.4h0.9c0.2,0,0.4,0.1,0.5,0.2c0.1,0.1,0.2,0.3,0.2,0.5C6.8,50.4,6.7,50.6,6.6,50.7 M6.1,49.1H4.6
	v2.2h1.3c0.2,0,0.4,0,0.5,0c0.1,0,0.3-0.1,0.4-0.1C7,51,7.1,50.9,7.2,50.7c0.1-0.2,0.1-0.4,0.1-0.6c0-0.3-0.1-0.6-0.3-0.8
	C6.8,49.2,6.5,49.1,6.1,49.1 M8.3,51.3h0.5v-2.2H8.3V51.3z M13.4,51.3h0.5v-2.2h-0.5V51.3z M27.8,49.5h1v1.8h0.5v-1.8h1v-0.4h-2.6
	V49.5z M35.6,28.5H21.5v4.1H26v13.7h4.8V32.6h4.8V28.5z M31,51.3h0.5v-2.2H31V51.3z M26.7,49.1h-1.3c-0.2,0-0.4,0-0.4,0.1
	c-0.1,0.1-0.1,0.2-0.1,0.4v1.2c0,0.2,0,0.3,0.1,0.4c0.1,0.1,0.2,0.1,0.4,0.1h1.3c0.2,0,0.4,0,0.4-0.1c0.1-0.1,0.1-0.2,0.1-0.4v-0.3
	l-0.5-0.1v0.5h-1.4v-1.4h1.4v0.4l0.5-0.1v-0.2c0-0.2,0-0.3-0.1-0.4C27.1,49.1,26.9,49.1,26.7,49.1 M22.1,50.3h1V50h-1v-0.5h1.8v-0.4
	h-2.3v2.2h2.3v-0.4h-1.8V50.3z M18.8,51.3h0.5v-0.8h0.9v-0.4h-0.9v-0.6H21v-0.4h-2.2V51.3z"/>
</svg>
